<svg width="60" height="60" viewBox="0 0 60 60" fill="none" xmlns="http://www.w3.org/2000/svg">
<path fill-rule="evenodd" clip-rule="evenodd" d="M24.3325 16.0949C25.1263 15.3949 25.7787 14.4499 26.0037 13.5474C26.1313 13.0349 26.1912 12.2236 25.625 11.5686C25.0463 10.8974 24.19 10.8236 23.515 10.9086C23.1001 10.9603 22.683 10.9912 22.265 11.0011L22.21 11.0036C21.8225 11.0161 21.36 11.0324 20.85 11.1974C20.32 11.3699 19.8175 11.6724 19.2163 12.1161C18.8241 12.4049 18.4535 12.722 18.1075 13.0649C16.0713 11.6149 13.45 11.0486 9.33625 11.2499C8.83897 11.2548 8.36403 11.4571 8.01592 11.8123C7.66781 12.1674 7.47503 12.6463 7.48 13.1436C7.48498 13.6409 7.68729 14.1158 8.04244 14.4639C8.39758 14.8121 8.87647 15.0048 9.37375 14.9999H11.17C11.2783 15.0732 11.3808 15.1444 11.4775 15.2136L8.63875 18.7636C8.08556 18.8095 7.54946 18.9777 7.06915 19.256C6.58884 19.5343 6.1763 19.9157 5.8613 20.3728C5.5463 20.8298 5.33671 21.3511 5.24764 21.8991C5.15857 22.447 5.19225 23.0078 5.34625 23.5411L5.7075 24.7911C5.93323 25.5721 6.40663 26.2586 7.05639 26.7471C7.70614 27.2357 8.49706 27.4999 9.31 27.4999H13.2125C13.4841 27.5 13.7483 27.5887 13.965 27.7524L16.395 29.5874C16.6083 29.7465 16.83 29.8811 17.06 29.9911C18.505 33.9036 20.0625 37.2361 21.825 39.4561L22.225 44.2686C21.8112 44.587 21.5076 45.027 21.3565 45.5267C21.2055 46.0265 21.2148 46.561 21.383 47.0553C21.5512 47.5495 21.8699 47.9787 22.2944 48.2826C22.7189 48.5865 23.2279 48.7499 23.75 48.7499H27.5C27.8315 48.7499 28.1495 48.6182 28.3839 48.3837C28.6183 48.1493 28.75 47.8314 28.75 47.4999V37.4999H32.65L32.7 37.6836C32.4158 37.8338 32.2003 38.0876 32.0983 38.3925C31.9964 38.6974 32.0158 39.0298 32.1526 39.3207C32.2894 39.6116 32.533 39.8387 32.8328 39.9547C33.1326 40.0707 33.4655 40.0667 33.7625 39.9436L33.9013 39.8861C34.3337 40.3899 34.8538 40.8361 35.4425 41.2111L35.4375 41.2211C35.3578 41.3659 35.3076 41.525 35.2898 41.6893C35.272 41.8536 35.287 42.0198 35.3338 42.1783C35.3807 42.3368 35.4585 42.4844 35.5627 42.6126C35.667 42.7408 35.7957 42.8471 35.9413 42.9252C36.0869 43.0034 36.2465 43.0519 36.411 43.068C36.5755 43.0841 36.7415 43.0674 36.8995 43.0188C37.0574 42.9703 37.2042 42.891 37.3313 42.7854C37.4585 42.6798 37.5634 42.55 37.64 42.4036L37.7437 42.2111C38.5691 42.4268 39.4212 42.5224 40.2738 42.4949L40.3062 42.6636C40.3758 42.9825 40.5674 43.2616 40.84 43.4411C41.1126 43.6206 41.4446 43.6864 41.7651 43.6243C42.0855 43.5623 42.369 43.3774 42.5549 43.1091C42.7408 42.8408 42.8144 42.5104 42.76 42.1886L42.7375 42.0699C43.3625 41.8661 43.9463 41.5936 44.4775 41.2636L44.7275 44.2674C44.3134 44.5855 44.0093 45.0253 43.8579 45.5251C43.7065 46.0248 43.7154 46.5594 43.8834 47.0539C44.0513 47.5483 44.3699 47.9778 44.7943 48.2819C45.2188 48.5861 45.7278 48.7497 46.25 48.7499H50C50.3315 48.7499 50.6495 48.6182 50.8839 48.3837C51.1183 48.1493 51.25 47.8314 51.25 47.4999V26.2499C51.25 22.9636 50.4712 20.5749 49.16 18.9411C50.2162 19.1449 50.9112 19.4974 51.375 19.9436C52.0712 20.6124 52.5 21.7386 52.5 23.7486L52.9838 30.5236C52.6888 30.9799 52.5 31.6949 52.5 32.4986C52.5 33.8799 53.0588 34.9986 53.75 34.9986C54.4412 34.9986 55 33.8799 55 32.4986C55 31.6949 54.81 30.9799 54.515 30.5236L55 23.7499C55 21.4574 54.5213 19.4999 53.1075 18.1411C51.7113 16.7999 49.6625 16.2949 47.1413 16.2524L43.3712 16.2499H26.875C25.9363 16.2499 25.0963 16.1924 24.3325 16.0949ZM46.91 20.1674C45.9375 19.1661 44.6587 18.7686 43.385 18.7511H26.875C24.0125 18.7511 21.9125 18.2711 20.1575 17.6724C19.8988 17.5841 19.6762 17.4136 19.5237 17.1868C19.3712 16.96 19.2972 16.6895 19.3131 16.4166C19.329 16.1438 19.4339 15.8837 19.6116 15.6761C19.7894 15.4686 20.0303 15.325 20.2975 15.2674C21.1513 15.0836 21.96 14.7661 22.4538 14.4024C22.8067 14.1391 23.1087 13.8138 23.345 13.4424C22.9363 13.4799 22.6138 13.4911 22.355 13.4999H22.3513C21.9013 13.5161 21.77 13.5274 21.6225 13.5749C21.4725 13.6249 21.2225 13.7424 20.6975 14.1286C20.0588 14.5999 19.5788 15.1011 19.2975 15.5149C19.1956 15.6644 19.0624 15.7901 18.9071 15.8832C18.7519 15.9762 18.5783 16.0344 18.3983 16.0538C18.2183 16.0732 18.0363 16.0533 17.8648 15.9954C17.6933 15.9375 17.5364 15.8431 17.405 15.7186C16.5425 14.9024 15.515 14.2961 13.93 13.9736L14.0725 14.1011C14.3069 14.3151 14.4512 14.6102 14.476 14.9266C14.5009 15.243 14.4044 15.557 14.2063 15.8049L10.225 20.7799C10.1081 20.9263 9.95978 21.0445 9.79101 21.1259C9.62225 21.2072 9.43735 21.2496 9.25 21.2499H8.95C8.75602 21.2496 8.56463 21.2945 8.39098 21.3809C8.21734 21.4674 8.06621 21.5931 7.94954 21.7481C7.83288 21.9031 7.75389 22.0831 7.71882 22.2739C7.68376 22.4647 7.69357 22.661 7.7475 22.8474L8.11 24.0974C8.18528 24.3575 8.34299 24.5861 8.5594 24.7489C8.77581 24.9116 9.03922 24.9997 9.31 24.9999H13.2125C14.0282 24.9999 14.8216 25.2658 15.4725 25.7574L17.9013 27.5924C18.0488 27.7007 18.1975 27.7732 18.3475 27.8099C18.5442 27.8607 18.7256 27.9588 18.8759 28.0956C19.0262 28.2324 19.1409 28.4038 19.21 28.5949C20.7713 32.9024 22.35 36.2124 23.9938 38.1586C24.1612 38.3573 24.2626 38.6033 24.2838 38.8624L24.7888 44.9124C24.815 45.225 24.7228 45.5361 24.5304 45.7838C24.338 46.0316 24.0594 46.1979 23.75 46.2499H26.25V36.2499C26.25 35.9183 26.3817 35.6004 26.6161 35.366C26.8505 35.1316 27.1685 34.9999 27.5 34.9999H35.2875L35.175 34.8874C33.7625 33.4661 32.1213 31.6711 31.4637 30.6999L33.535 29.2999C34.0437 30.0511 35.5263 31.6949 36.9475 33.1249C37.5264 33.7146 38.1268 34.2829 38.7475 34.8286C38.9762 35.0224 39.11 35.1199 39.1613 35.1536C39.0947 35.1235 39.0257 35.0992 38.955 35.0811C39.1156 35.1419 39.262 35.235 39.385 35.3549C41.11 37.0336 42.9625 38.2849 45.8313 38.7674C46.1052 38.8133 46.356 38.9493 46.5441 39.1537C46.7322 39.3581 46.8469 39.6193 46.87 39.8961L47.2888 44.9136C47.3147 45.226 47.2223 45.5368 47.0299 45.7843C46.8375 46.0318 46.5592 46.198 46.25 46.2499H48.75V26.2499C48.75 23.0249 47.905 21.1924 46.91 20.1674ZM40 39.9999C37.57 39.9999 35.9525 38.8036 35.3113 37.4999H38.0125C38.9875 38.4074 40.05 39.2224 41.3 39.8774C40.8967 39.9574 40.4633 39.9982 40 39.9999Z" fill="#FF4F00"/>
</svg>
