<svg width="60" height="60" viewBox="0 0 60 60" fill="none" xmlns="http://www.w3.org/2000/svg">
<path fill-rule="evenodd" clip-rule="evenodd" d="M50.7722 11.9221C56.4092 17.818 56.4092 27.3773 50.7722 33.2734L30 55L9.22772 33.2734C3.59076 27.3773 3.59076 17.818 9.22772 11.9219C14.4579 6.45163 22.7032 6.05671 28.3685 10.7375C28.8155 11.1072 29.2404 11.5027 29.6412 11.9219L30 12.2973L30.3587 11.9221C30.7656 11.4966 31.1906 11.1018 31.6314 10.7375C37.2968 6.05671 45.542 6.45152 50.7722 11.9221ZM12.8418 15.3772C16.5096 11.5409 22.3593 11.5409 26.0271 15.3772L30 19.5327L33.9728 15.3773C37.6406 11.541 43.4903 11.541 47.1581 15.3773C50.9472 19.3404 50.947 25.855 47.1581 29.8181L46.7994 30.1934L30 47.7647L12.8418 29.8181C9.05275 25.855 9.05275 19.3404 12.8418 15.3772Z" fill="#FF4F00"/>
</svg>
