<svg width="60" height="60" viewBox="0 0 60 60" fill="none" xmlns="http://www.w3.org/2000/svg">
<path fill-rule="evenodd" clip-rule="evenodd" d="M53.6662 27.7537C51.9159 24.8681 48.9534 21.7931 44.3869 21.8241C37.9584 21.8672 35.4497 26.9775 33.3056 31.2581C32.6372 32.5912 31.5675 34.65 30.0609 34.9425C28.2722 35.2894 27.2737 34.2619 26.0962 33.7744C28.5572 31.785 30.764 29.4619 31.1428 25.7775C31.7522 19.8403 28.0847 16.1072 23.2144 15.7144C18.5015 15.3337 14.7084 16.6247 11.6812 18.3197C10.8656 18.7763 9.21185 19.7728 9.15841 20.5659C9.11998 21.1388 11.1947 23.9297 12.8531 27.8438C15.0028 26.4628 18.0459 23.9381 21.5025 23.6213C27.5044 23.0709 27.9787 28.9031 22.0425 30.0009C19.5815 30.4547 17.4028 29.8181 15.375 29.4619C16.515 32.0859 14.7844 37.0238 16.8169 38.8069C18.7265 40.4822 21.4031 38.4694 23.5734 38.5378C26.7319 38.6372 28.9584 42.1106 27.4481 45.5475C25.5056 49.9659 17.9962 51.075 13.484 48.2428C4.85998 42.8297 6.41154 32.6072 4.83373 32.6072C2.75154 32.6053 1.77935 58.125 20.3306 58.125C27.7556 58.125 34.005 52.5441 33.3956 44.6466C33.2184 42.3488 32.3428 40.3106 31.7737 38.5359C33.3009 38.7009 34.8009 38.5678 36.1884 38.3569C34.2844 41.6231 35.5294 47.7619 37.1794 50.2172C39.6553 53.8997 45.5597 55.1681 49.8834 52.2844C53.4722 49.8909 55.8544 45.9572 56.1919 40.4231C56.4994 35.3325 55.6106 30.9581 53.6662 27.7537ZM44.0259 45.0066C39.7556 45.4594 37.0462 43.2206 36.7294 38.2678C40.305 36.7969 41.4862 30.5784 45.8278 28.0238C49.5853 25.8131 51.7069 30.3037 51.9544 33.5053C52.4194 39.5194 49.1494 44.4619 44.0259 45.0066ZM36.7734 12.6581C36.7734 12.6581 41.9606 9.08813 41.9531 7.22156C41.9456 5.37094 36.7734 1.875 36.7734 1.875C36.7734 1.875 31.6003 5.355 31.5937 7.22156C31.5853 9.10406 36.7734 12.6581 36.7734 12.6581Z" fill="#FF4F00"/>
<path fill-rule="evenodd" clip-rule="evenodd" d="M35.4675 20.1159C42.8466 21.7762 52.2253 16.0265 52.2253 14.0953C52.2253 11.6334 47.7919 9.29433 46.9997 8.25558C44.6213 11.3165 40.335 15.21 34.8356 13.7362C29.341 12.2643 27.0881 5.02026 27.0881 5.02026C26.3466 7.3612 26.356 10.1943 27.1781 12.3881C28.411 15.6768 31.9519 19.3246 35.4675 20.1159Z" fill="#FF4F00"/>
</svg>
